<svg xmlns="http://www.w3.org/2000/svg" width="151" height="25" viewBox="0 0 151 25" fill="none"><path d="M26.8559 15.9876C25.9158 15.0496 21.9209 13.1738 21.9209 13.1738V19.8147L25.9159 21.9669C25.9159 21.9669 27.6582 20.6349 27.9134 19.3876C28.1921 18.0254 27.796 16.9256 26.8559 15.9876Z" fill="white"/><path d="M1.14511 8.17522C2.08517 9.11323 6.08008 10.989 6.08008 10.989L6.08008 4.34815L2.08508 2.1959C2.08508 2.1959 0.342765 3.52797 0.0876122 4.77522C-0.191088 6.1374 0.205012 7.23722 1.14511 8.17522Z" fill="white"/><path d="M13.5004 0C12.5892 0 7.09668 3.28276 7.09668 3.28276L11.0917 5.43501L22.5479 11.6069C22.5479 11.6069 22.5479 6.80002 22.5479 5.86208C22.5479 4.92414 22.0479 4.57242 21.6079 4.2207C21.1679 3.86898 14.4116 0 13.5004 0Z" fill="white"/><path d="M14.9977 24.4658C15.9089 24.4658 21.4014 21.1831 21.4014 21.1831L17.4064 19.0308L5.9502 12.8589C5.9502 12.8589 5.9502 17.6658 5.9502 18.6037C5.9502 19.5417 6.45019 19.8934 6.89019 20.2451C7.3302 20.5968 14.0864 24.4658 14.9977 24.4658Z" fill="white"/><ellipse cx="13.7789" cy="11.9199" rx="3.13147" ry="3.13671" fill="white"/><path d="M43.417 20.5689C42.121 20.5689 40.977 20.3369 39.985 19.8729C38.993 19.4089 38.217 18.7449 37.657 17.8809C37.097 17.0169 36.817 15.9769 36.817 14.7609V14.0889H39.937V14.7609C39.937 15.7689 40.249 16.5289 40.873 17.0409C41.497 17.5369 42.345 17.7849 43.417 17.7849C44.505 17.7849 45.313 17.5689 45.841 17.1369C46.385 16.7049 46.657 16.1529 46.657 15.4809C46.657 15.0169 46.521 14.6409 46.249 14.3529C45.993 14.0649 45.609 13.8329 45.097 13.6569C44.601 13.4649 43.993 13.2889 43.273 13.1289L42.721 13.0089C41.569 12.7529 40.577 12.4329 39.745 12.0489C38.929 11.6489 38.297 11.1289 37.849 10.4889C37.417 9.84891 37.201 9.01691 37.201 7.99291C37.201 6.96891 37.441 6.09691 37.921 5.37691C38.417 4.64091 39.105 4.08091 39.985 3.69691C40.881 3.29691 41.929 3.09691 43.129 3.09691C44.329 3.09691 45.393 3.30491 46.321 3.72091C47.265 4.12091 48.001 4.72891 48.529 5.54491C49.073 6.34491 49.345 7.35291 49.345 8.56891V9.28891H46.225V8.56891C46.225 7.92891 46.097 7.41691 45.841 7.03291C45.601 6.63291 45.249 6.34491 44.785 6.16891C44.321 5.97691 43.769 5.88091 43.129 5.88091C42.169 5.88091 41.457 6.06491 40.993 6.43291C40.545 6.78491 40.321 7.27291 40.321 7.89691C40.321 8.31291 40.425 8.66491 40.633 8.95291C40.857 9.24091 41.185 9.48091 41.617 9.67291C42.049 9.86491 42.601 10.0329 43.273 10.1769L43.825 10.2969C45.025 10.5529 46.065 10.8809 46.945 11.2809C47.841 11.6809 48.537 12.2089 49.033 12.8649C49.529 13.5209 49.777 14.3609 49.777 15.3849C49.777 16.4089 49.513 17.3129 48.985 18.0969C48.473 18.8649 47.737 19.4729 46.777 19.9209C45.833 20.3529 44.713 20.5689 43.417 20.5689ZM53.4837 20.2329L51.2757 3.43291H54.4197L56.0517 18.0249H56.4837L58.5957 3.43291H64.0677L66.1797 18.0249H66.6117L68.2437 3.43291H71.3877L69.1797 20.2329H63.7077L61.5477 5.30491H61.1157L58.9557 20.2329H53.4837ZM73.7022 20.2329V3.43291H84.5022V6.31291H76.8702V10.3209H83.8302V13.2009H76.8702V17.3529H84.6462V20.2329H73.7022ZM87.3272 20.2329V3.43291H91.2392L97.0952 18.9609H97.4072V3.43291H99.3992V20.2329H95.4872L89.6552 4.68091H89.3192V20.2329H87.3272ZM103.265 20.2329V3.43291H113.609V5.25691H105.281V10.8729H112.937V12.6969H105.281V18.4089H113.729V20.2329H103.265ZM120.916 20.2329V5.25691H115.516V3.43291H128.332V5.25691H122.932V20.2329H120.916ZM130.898 20.2329V3.43291H132.914V20.2329H130.898ZM135.605 20.2329L141.029 11.7609L135.677 3.43291H138.053L142.325 10.3689H142.637L146.933 3.43291H149.285L143.957 11.7609L149.381 20.2329H147.029L142.637 13.1529H142.325L137.957 20.2329H135.605Z" fill="white"/></svg>